<svg xmlns="http://www.w3.org/2000/svg" xmlns:xlink="http://www.w3.org/1999/xlink" width="32px" height="32px" viewBox="0 0 32 32" version="1.1">
<defs>
<linearGradient id="linear0" gradientUnits="userSpaceOnUse" x1="0" y1="0" x2="1" y2="0" gradientTransform="matrix(26.25,0,0,26.25,2.875,2.875)">
<stop offset="0" style="stop-color:rgb(56.078431%,36.862745%,14.509804%);stop-opacity:1;"/>
<stop offset="0.5" style="stop-color:rgb(98.431373%,95.686275%,63.137255%);stop-opacity:1;"/>
<stop offset="1" style="stop-color:rgb(56.078431%,36.862745%,14.509804%);stop-opacity:1;"/>
</linearGradient>
</defs>
<g id="surface1">
<path style=" stroke:none;fill-rule:nonzero;fill:url(#linear0);" d="M 29.125 16 C 29.125 20.664062 27.226562 24.226562 23.558594 26.558594 C 21.527344 27.855469 18.589844 29.125 16 29.125 C 11.46875 29.125 8.523438 28.40625 6.167969 24.925781 C 4.75 22.824219 2.875 18.730469 2.875 16 C 2.875 12.402344 3.796875 8.617188 6.140625 6.246094 C 8.480469 3.871094 12.347656 2.875 16 2.875 C 20.988281 2.875 24.804688 5.65625 27.027344 9.757812 C 28.011719 11.609375 29.125 13.738281 29.125 16 Z M 29.125 16 "/>
<path style=" stroke:none;fill-rule:nonzero;fill:rgb(0%,53.72549%,56.078431%);fill-opacity:1;" d="M 19.871094 10.371094 C 19.503906 9.933594 18.960938 10.117188 18.460938 10.132812 C 18.480469 9.652344 18.488281 9.171875 18.496094 8.707031 C 18.5 8.613281 18.441406 8.5625 18.375 8.542969 C 17.660156 7.554688 16.109375 7.511719 15.003906 7.605469 C 14.238281 7.671875 12.234375 7.917969 11.957031 8.828125 C 11.921875 8.832031 11.890625 8.855469 11.894531 8.898438 C 12.050781 10.503906 12.316406 12.257812 12.894531 13.769531 C 13.332031 14.90625 14.253906 15.445312 15.449219 15.507812 C 16.527344 15.566406 17.621094 15.449219 17.9375 14.273438 C 18.03125 13.933594 18.105469 13.578125 18.167969 13.222656 C 18.574219 13.296875 19.300781 13.503906 19.648438 13.269531 C 20.039062 13.003906 20.105469 12.121094 20.144531 11.703125 C 20.183594 11.261719 20.175781 10.730469 19.871094 10.371094 Z M 15.164062 7.921875 C 16.167969 7.867188 17.179688 7.96875 17.984375 8.582031 C 17.945312 8.621094 17.929688 8.679688 17.976562 8.742188 C 18.039062 8.824219 17.964844 8.925781 17.828125 9.035156 C 17.8125 9.011719 17.800781 8.988281 17.785156 8.964844 C 17.84375 8.90625 17.851562 8.804688 17.761719 8.75 C 16.988281 8.277344 16.113281 8.273438 15.238281 8.386719 C 14.449219 8.484375 13.175781 8.625 12.503906 9.136719 C 12.371094 9.042969 12.257812 8.941406 12.183594 8.820312 C 12.679688 8.160156 14.5 7.960938 15.164062 7.921875 Z M 17.261719 9.253906 C 17.28125 9.234375 17.300781 9.210938 17.316406 9.183594 C 17.359375 9.214844 17.402344 9.242188 17.449219 9.265625 C 17.175781 9.410156 16.882812 9.527344 16.8125 9.546875 C 16.421875 9.660156 16.003906 9.695312 15.589844 9.703125 C 15.601562 9.699219 15.609375 9.695312 15.617188 9.691406 C 15.777344 9.703125 15.933594 9.660156 16.066406 9.582031 C 16.09375 9.585938 16.121094 9.589844 16.152344 9.589844 C 16.207031 9.589844 16.257812 9.582031 16.304688 9.570312 C 16.414062 9.59375 16.539062 9.582031 16.664062 9.511719 C 16.691406 9.496094 16.710938 9.480469 16.734375 9.464844 C 16.96875 9.503906 17.203125 9.445312 17.261719 9.253906 Z M 16.738281 8.710938 C 16.851562 8.734375 16.964844 8.761719 17.078125 8.792969 C 17.070312 8.800781 17.066406 8.8125 17.0625 8.820312 L 16.898438 8.820312 C 16.859375 8.820312 16.832031 8.835938 16.808594 8.859375 C 16.796875 8.847656 16.785156 8.835938 16.773438 8.824219 C 16.765625 8.785156 16.753906 8.75 16.738281 8.710938 Z M 17.40625 8.90625 C 17.476562 8.933594 17.546875 8.960938 17.617188 8.996094 C 17.628906 9 17.640625 9 17.652344 9.003906 C 17.679688 9.074219 17.6875 9.121094 17.675781 9.136719 L 17.667969 9.140625 C 17.640625 9.152344 17.554688 9.074219 17.40625 8.90625 Z M 14.5625 8.773438 C 14.53125 8.792969 14.5 8.808594 14.472656 8.832031 C 13.910156 8.929688 13.351562 9.042969 12.792969 9.152344 C 13.222656 8.96875 14.050781 8.84375 14.5625 8.773438 Z M 17.851562 12.558594 C 17.75 13.363281 17.773438 14.089844 17.214844 14.683594 C 16.710938 15.214844 16.019531 15.226562 15.308594 15.167969 C 13.738281 15.035156 13.230469 13.925781 12.875 12.566406 C 12.5625 11.382812 12.332031 10.179688 12.070312 8.984375 C 12.164062 9.160156 12.304688 9.304688 12.480469 9.421875 C 12.496094 9.484375 12.539062 9.539062 12.609375 9.554688 C 12.660156 9.5625 12.707031 9.570312 12.753906 9.578125 C 13.558594 9.96875 14.769531 10.019531 15.429688 10.027344 C 16.179688 10.03125 17.546875 9.917969 18.113281 9.230469 C 18.066406 10.34375 17.988281 11.453125 17.851562 12.558594 Z M 18.425781 10.910156 C 18.441406 10.917969 18.460938 10.925781 18.484375 10.925781 C 18.6875 10.941406 18.878906 10.945312 19.074219 10.984375 C 19.078125 11.265625 19.082031 11.550781 19.089844 11.832031 C 19.097656 12.09375 19.121094 12.15625 18.949219 12.375 C 18.886719 12.554688 18.765625 12.621094 18.585938 12.582031 C 18.480469 12.566406 18.378906 12.546875 18.277344 12.527344 C 18.347656 11.992188 18.394531 11.449219 18.425781 10.910156 Z M 19.820312 11.605469 C 19.792969 11.9375 19.753906 12.421875 19.585938 12.71875 C 19.324219 13.175781 18.679688 12.949219 18.21875 12.929688 C 18.234375 12.851562 18.242188 12.769531 18.253906 12.6875 C 18.578125 12.816406 18.988281 12.886719 19.242188 12.59375 C 19.40625 12.402344 19.390625 12.148438 19.390625 11.90625 C 19.394531 11.558594 19.386719 11.207031 19.382812 10.855469 C 19.382812 10.789062 19.335938 10.722656 19.269531 10.703125 C 18.996094 10.632812 18.722656 10.59375 18.445312 10.648438 C 18.441406 10.648438 18.441406 10.652344 18.4375 10.652344 C 18.445312 10.539062 18.449219 10.425781 18.453125 10.3125 C 18.785156 10.359375 19.082031 10.308594 19.398438 10.472656 C 19.855469 10.710938 19.859375 11.128906 19.820312 11.605469 Z M 19.820312 11.605469 "/>
<path style=" stroke:none;fill-rule:nonzero;fill:rgb(0%,53.72549%,56.078431%);fill-opacity:1;" d="M 11.871094 16.730469 C 11.972656 16.726562 11.976562 16.878906 11.871094 16.882812 C 11.734375 16.882812 11.601562 16.890625 11.464844 16.902344 C 11.375 17.421875 11.386719 17.988281 11.367188 18.523438 C 11.367188 18.628906 11.214844 18.613281 11.21875 18.523438 C 11.234375 17.988281 11.226562 17.457031 11.3125 16.917969 C 11.199219 16.929688 10.929688 16.957031 10.921875 16.957031 C 10.839844 16.957031 10.816406 16.832031 10.902344 16.808594 C 10.917969 16.804688 11.542969 16.730469 11.871094 16.730469 Z M 13.296875 16.898438 C 13.308594 17.46875 13.246094 18.027344 13.269531 18.585938 C 13.273438 18.675781 13.121094 18.691406 13.117188 18.585938 C 13.109375 18.371094 13.113281 18.160156 13.117188 17.945312 C 13.089844 17.953125 12.8125 17.941406 12.546875 17.992188 C 12.550781 18.214844 12.574219 18.371094 12.605469 18.503906 C 12.617188 18.558594 12.578125 18.597656 12.53125 18.597656 C 12.449219 18.597656 12.445312 18.496094 12.425781 18.363281 C 12.359375 17.886719 12.414062 17.359375 12.496094 16.882812 C 12.503906 16.804688 12.644531 16.808594 12.644531 16.902344 C 12.628906 17 12.554688 17.386719 12.546875 17.839844 C 12.769531 17.800781 13.09375 17.792969 13.125 17.804688 C 13.136719 17.5 13.152344 17.199219 13.144531 16.898438 C 13.144531 16.804688 13.292969 16.796875 13.296875 16.898438 Z M 14.878906 18.378906 C 14.882812 18.394531 14.882812 18.417969 14.871094 18.4375 C 14.820312 18.519531 14.164062 18.648438 14.089844 18.578125 C 13.964844 18.449219 14.058594 17.019531 14.109375 16.9375 C 14.117188 16.917969 14.136719 16.902344 14.152344 16.902344 C 14.316406 16.878906 14.480469 16.863281 14.75 16.867188 C 14.789062 16.867188 14.824219 16.902344 14.824219 16.945312 C 14.824219 17.066406 14.691406 16.992188 14.246094 17.039062 C 14.203125 17.296875 14.179688 17.5625 14.175781 17.824219 C 14.277344 17.820312 14.339844 17.800781 14.484375 17.773438 C 14.589844 17.75 14.613281 17.898438 14.523438 17.917969 C 14.410156 17.941406 14.296875 17.96875 14.175781 17.972656 C 14.179688 18.132812 14.191406 18.289062 14.210938 18.445312 C 14.664062 18.433594 14.835938 18.226562 14.878906 18.378906 Z M 17.941406 16.730469 C 18.042969 16.726562 18.046875 16.878906 17.941406 16.882812 C 17.804688 16.882812 17.671875 16.890625 17.535156 16.902344 C 17.445312 17.421875 17.457031 17.988281 17.441406 18.523438 C 17.4375 18.628906 17.285156 18.613281 17.289062 18.523438 C 17.304688 17.988281 17.296875 17.457031 17.382812 16.917969 C 17.269531 16.929688 17 16.957031 16.992188 16.957031 C 16.914062 16.957031 16.886719 16.832031 16.972656 16.808594 C 16.988281 16.804688 17.613281 16.730469 17.941406 16.730469 Z M 19.453125 18.378906 C 19.457031 18.394531 19.457031 18.417969 19.445312 18.4375 C 19.394531 18.519531 18.738281 18.648438 18.664062 18.578125 C 18.539062 18.449219 18.632812 17.019531 18.683594 16.9375 C 18.691406 16.917969 18.710938 16.902344 18.726562 16.902344 C 18.890625 16.878906 19.054688 16.863281 19.324219 16.867188 C 19.363281 16.867188 19.398438 16.902344 19.398438 16.945312 C 19.398438 17.066406 19.265625 16.992188 18.820312 17.039062 C 18.777344 17.296875 18.753906 17.5625 18.75 17.824219 C 18.851562 17.820312 18.914062 17.800781 19.058594 17.773438 C 19.164062 17.75 19.1875 17.898438 19.097656 17.917969 C 18.984375 17.941406 18.871094 17.96875 18.75 17.972656 C 18.753906 18.132812 18.765625 18.289062 18.785156 18.445312 C 19.238281 18.433594 19.414062 18.226562 19.453125 18.378906 Z M 20.917969 16.886719 C 21.128906 17.242188 21.109375 18.355469 21.125 18.59375 C 21.128906 18.652344 21.046875 18.695312 20.992188 18.644531 C 20.949219 18.597656 20.984375 18.375 20.941406 17.78125 C 20.757812 17.808594 20.578125 17.839844 20.390625 17.8125 C 20.234375 18.515625 20.28125 18.53125 20.222656 18.566406 C 20.175781 18.59375 20.101562 18.5625 20.109375 18.480469 C 20.164062 18.105469 20.320312 17.3125 20.492188 16.964844 C 20.644531 16.660156 20.828125 16.730469 20.917969 16.886719 Z M 20.421875 17.667969 C 20.578125 17.691406 20.789062 17.652344 20.933594 17.628906 C 20.921875 17.5 20.855469 16.90625 20.722656 16.90625 C 20.605469 16.9375 20.453125 17.550781 20.421875 17.667969 Z M 20.421875 17.667969 "/>
<path style=" stroke:none;fill-rule:nonzero;fill:rgb(0%,53.72549%,56.078431%);fill-opacity:1;" d="M 12.359375 23.542969 C 12.382812 23.648438 12.324219 23.757812 12.230469 23.785156 C 11.648438 23.945312 11.117188 24.175781 10.964844 24.023438 C 10.722656 23.785156 10.914062 20.6875 10.945312 19.582031 C 10.957031 19.335938 11.324219 19.335938 11.324219 19.582031 C 11.324219 20.953125 11.160156 22.3125 11.265625 23.664062 C 11.941406 23.519531 12.28125 23.253906 12.359375 23.542969 Z M 16.070312 19.890625 C 16.59375 20.78125 16.550781 23.5625 16.585938 24.160156 C 16.59375 24.304688 16.386719 24.417969 16.257812 24.289062 C 16.148438 24.167969 16.234375 23.613281 16.132812 22.125 C 15.667969 22.199219 15.214844 22.277344 14.753906 22.210938 C 14.359375 23.964844 14.480469 23.996094 14.335938 24.089844 C 14.214844 24.160156 14.027344 24.082031 14.050781 23.878906 C 14.1875 22.9375 14.574219 20.960938 15.011719 20.085938 C 15.386719 19.324219 15.839844 19.503906 16.070312 19.890625 Z M 14.832031 21.839844 C 15.222656 21.902344 15.746094 21.808594 16.105469 21.746094 C 16.078125 21.421875 15.910156 19.941406 15.582031 19.941406 C 15.292969 20.019531 14.90625 21.550781 14.832031 21.839844 Z M 19.800781 21.292969 C 22.179688 22.132812 20.9375 24.726562 19.277344 24.015625 L 19.039062 24.015625 C 18.960938 24.195312 18.816406 24.195312 18.738281 24.015625 C 18.570312 22.515625 18.398438 20.875 18.738281 19.4375 C 18.792969 19.1875 19.089844 19.308594 19.03125 19.539062 C 18.960938 19.832031 18.910156 20.15625 18.886719 20.472656 L 18.894531 20.480469 L 18.929688 20.488281 L 18.9375 20.488281 C 19.613281 19.523438 20.878906 18.914062 21.015625 19.789062 C 21.128906 20.566406 20.46875 20.96875 19.800781 21.242188 L 19.792969 21.25 L 19.792969 21.285156 Z M 20.699219 19.820312 C 20.613281 19.488281 19.320312 20.25 18.972656 21.070312 L 18.972656 21.078125 L 18.996094 21.105469 L 19.003906 21.105469 C 19.59375 20.960938 20.886719 20.507812 20.699219 19.820312 Z M 20.8125 22.894531 C 20.871094 21.988281 19.585938 21.480469 18.875 21.53125 L 18.867188 21.53125 L 18.851562 21.550781 L 18.851562 21.558594 C 18.859375 22.140625 18.910156 22.738281 18.972656 23.3125 L 18.972656 23.320312 C 19.304688 23.929688 20.648438 23.9375 20.8125 22.894531 Z M 20.8125 22.894531 "/>
</g>
</svg>
