<?xml version="1.0" standalone="no"?>
<!DOCTYPE svg PUBLIC "-//W3C//DTD SVG 20010904//EN"
 "http://www.w3.org/TR/2001/REC-SVG-20010904/DTD/svg10.dtd">
<svg version="1.0" xmlns="http://www.w3.org/2000/svg"
 width="1024.000000pt" height="199.000000pt" viewBox="0 0 1024.000000 199.000000"
 preserveAspectRatio="xMidYMid meet">

<g transform="translate(0.000000,199.000000) scale(0.100000,-0.100000)"
fill="#000000" stroke="none">
<path d="M2245 1601 c-37 -9 -78 -30 -87 -45 -12 -18 0 -135 22 -220 36 -140
75 -176 193 -176 80 0 112 21 124 83 9 42 9 42 50 39 54 -5 73 21 73 99 0 64
-18 89 -66 89 -28 0 -29 1 -26 44 3 40 1 45 -30 67 -29 21 -46 24 -128 26 -52
1 -108 -2 -125 -6z m229 -25 c14 -9 26 -23 26 -32 0 -14 -2 -14 -15 0 -33 33
-156 33 -263 0 -56 -18 -75 -13 -50 12 42 42 248 56 302 20z m-221 -43 c-7 -2
-19 -2 -25 0 -7 3 -2 5 12 5 14 0 19 -2 13 -5z m77 -51 c89 -3 111 0 143 16
44 23 42 33 27 -119 -13 -127 -24 -163 -57 -189 -54 -43 -166 -17 -209 48 -20
29 -74 223 -74 264 0 15 3 15 33 0 22 -11 65 -18 137 -20z m77 12 c-3 -3 -12
-4 -19 -1 -8 3 -5 6 6 6 11 1 17 -2 13 -5z m181 -50 c25 -17 29 -61 11 -113
-10 -28 -15 -31 -50 -31 -35 0 -38 2 -35 23 3 12 5 39 5 60 1 33 4 37 26 37
22 0 25 -4 25 -33 0 -18 -7 -43 -16 -56 -16 -22 -16 -23 5 -12 17 10 21 21 21
62 0 47 -1 50 -30 56 -16 3 -30 9 -30 14 0 15 44 10 68 -7z"/>
<path d="M4163 813 c-10 -48 -10 -290 0 -363 l8 -55 66 -2 c103 -3 153 36 153
122 0 52 -24 91 -75 121 -25 14 -45 27 -45 29 0 2 20 15 45 29 52 31 65 51 65
100 0 73 -73 65 -159 -17 l-43 -42 7 58 c7 65 -9 80 -22 20z m194 -9 c12 -31
-16 -64 -79 -94 -98 -47 -113 -38 -51 31 32 36 94 77 116 79 4 0 10 -7 14 -16z
m-95 -176 c49 -14 94 -55 104 -93 19 -74 -68 -137 -141 -102 -38 18 -41 26
-49 135 l-6 72 26 0 c15 0 44 -5 66 -12z"/>
<path d="M490 828 c-106 -9 -128 -16 -115 -38 5 -8 23 -9 57 -5 l50 7 -6 -68
c-3 -38 -8 -129 -12 -201 -6 -128 -5 -133 13 -133 19 0 20 10 26 173 4 94 10
186 15 202 8 28 12 30 58 33 55 4 78 17 54 32 -8 5 -19 9 -25 8 -5 0 -57 -5
-115 -10z"/>
<path d="M3406 662 c-8 -206 -3 -262 25 -262 39 0 109 25 109 38 0 11 -9 13
-36 8 -19 -4 -42 -10 -50 -13 -17 -6 -18 8 -14 235 2 146 0 172 -12 172 -12 0
-16 -31 -22 -178z"/>
<path d="M1905 821 c-36 -4 -51 -11 -53 -23 -3 -15 4 -16 54 -11 54 6 57 5 50
-13 -5 -10 -11 -101 -13 -201 -5 -158 -4 -183 9 -183 12 0 16 30 22 178 9 240
5 230 74 234 33 2 57 8 60 16 4 13 -104 15 -203 3z"/>
<path d="M2731 804 c-11 -14 -29 -50 -40 -79 -26 -69 -75 -301 -67 -320 12
-31 23 -12 36 58 20 112 17 108 92 113 l65 5 7 -47 c3 -26 6 -73 6 -105 0 -46
3 -59 15 -59 18 0 20 81 5 235 -16 159 -42 225 -89 225 -5 0 -19 -12 -30 -26z
m67 -67 c21 -81 24 -117 10 -121 -29 -9 -96 -13 -107 -7 -13 8 9 92 41 154 23
46 40 39 56 -26z"/>
<path d="M3831 811 c-24 -24 -57 -112 -81 -216 -28 -117 -39 -195 -28 -201 15
-10 20 1 37 92 l16 88 72 3 72 4 3 -102 c2 -77 6 -104 17 -107 12 -4 13 20 8
149 -7 169 -26 264 -58 292 -27 22 -35 21 -58 -2z m68 -93 c6 -27 11 -62 11
-77 0 -27 -3 -29 -52 -34 -29 -2 -58 -2 -64 2 -14 7 29 147 54 174 15 17 17
17 29 2 6 -10 17 -39 22 -67z"/>
<path d="M775 798 c-21 -61 -32 -264 -19 -362 5 -36 11 -46 26 -46 20 0 20 5
1 104 -7 37 8 46 79 46 l57 0 3 -82 c2 -66 6 -83 18 -83 13 0 15 32 18 218 2
189 0 217 -13 217 -13 0 -15 -19 -15 -114 l0 -114 -71 -7 c-38 -4 -72 -5 -75
-3 -3 4 9 148 19 217 3 18 -22 27 -28 9z"/>
<path d="M1178 793 c-12 -3 -18 -20 -22 -66 -11 -132 -14 -234 -8 -282 l7 -50
43 -3 c46 -3 152 23 152 38 0 18 -17 19 -78 3 -83 -21 -92 -16 -92 52 0 50 2
55 23 55 39 0 67 12 67 27 0 12 -9 14 -47 8 l-46 -7 6 92 c3 51 9 95 12 98 3
3 35 8 70 10 47 3 65 8 65 18 0 11 -16 14 -67 13 -38 -1 -76 -3 -85 -6z"/>
<path d="M2288 793 c-12 -3 -18 -20 -22 -66 -13 -147 -16 -235 -9 -282 8 -48
9 -50 43 -53 48 -5 140 17 147 34 9 23 1 24 -52 9 -26 -8 -61 -15 -77 -15 -28
0 -28 1 -28 59 l0 59 45 6 c31 5 45 12 45 23 0 13 -8 14 -46 8 l-47 -7 5 89
c2 49 7 94 12 101 4 7 31 12 72 12 50 0 64 3 64 15 0 12 -14 15 -67 14 -38 -1
-76 -3 -85 -6z"/>
</g>
</svg>
