<svg xmlns="http://www.w3.org/2000/svg" width="1080" height="1080" xml:space="preserve"><g><g transform="matrix(17.72 0 0 17.72 540 540)"><linearGradient id="a" gradientUnits="objectBoundingBox" x1="0" y1="0" x2="1" y2="0"><stop offset="0%" style="stop-color:#8f5e25;stop-opacity:1"/><stop offset="50%" style="stop-color:#fbf4a1;stop-opacity:1"/><stop offset="100%" style="stop-color:#8f5e25;stop-opacity:1"/></linearGradient><path style="stroke:none;stroke-width:1;stroke-dasharray:none;stroke-linecap:butt;stroke-dashoffset:0;stroke-linejoin:miter;stroke-miterlimit:4;fill:url(#a);fill-rule:nonzero;opacity:1" vector-effect="non-scaling-stroke" transform="translate(-25 -25)" d="M50 25c0 8.88-3.62 15.67-10.6 20.11C35.53 47.58 29.93 50 25 50c-8.63 0-14.24-1.37-18.73-8C3.57 38 0 30.2 0 25c0-6.85 1.76-14.06 6.22-18.58C10.68 1.9 18.04 0 25 0c9.5 0 16.77 5.3 21 13.11 1.88 3.53 4 7.58 4 11.89z"/></g><path style="stroke:none;stroke-width:1;stroke-dasharray:none;stroke-linecap:butt;stroke-dashoffset:0;stroke-linejoin:miter;stroke-miterlimit:4;fill:none;fill-rule:nonzero;opacity:1" vector-effect="non-scaling-stroke" transform="matrix(3.1 0 0 3.1 385.814 234.89)" d="m67.881 23.826.076-.048c.116-.171.021-.672-.258-1.46-.13-.028-.258-.04-.393-.103-.764-.362-1.524-.646-2.285-.951 1.587 1.842 2.54 2.695 2.86 2.562z"/><path style="stroke:none;stroke-width:1;stroke-dasharray:none;stroke-linecap:butt;stroke-dashoffset:0;stroke-linejoin:miter;stroke-miterlimit:4;fill:none;fill-rule:nonzero;opacity:1" vector-effect="non-scaling-stroke" transform="matrix(3.1 0 0 3.1 385.845 234.92)" d="m59.502 20.328 1.789-.002c.037-.109.081-.209.146-.298a38.845 38.845 0 0 0-3.678-.879c.162.382.271.789.346 1.21.135.123.272.242.395.378.257-.234.575-.409 1.002-.409z"/><path style="stroke:none;stroke-width:1;stroke-dasharray:none;stroke-linecap:butt;stroke-dashoffset:0;stroke-linejoin:miter;stroke-miterlimit:4;fill:none;fill-rule:nonzero;opacity:1" vector-effect="non-scaling-stroke" transform="matrix(3.1 0 0 3.1 385.886 234.858)" d="M56.946 27.844c-1.395.754-2.72.897-3.913.634a6.897 6.897 0 0 1-1.688.224c-.323 0-.609-.052-.908-.086-1.442.856-3.149 1.327-4.898 1.2-.094.044-.188.086-.284.129 4.472-.084 9.039-.496 13.29-1.706.786-.224 3.941-1.482 6.937-3.05a8.87 8.87 0 0 1-1.436-.914c-.175.294-.38.558-.625.771-.605 2.074-3.166 2.713-5.733 2.306-.24.166-.455.337-.742.492z"/><path style="stroke:none;stroke-width:1;stroke-dasharray:none;stroke-linecap:butt;stroke-dashoffset:0;stroke-linejoin:miter;stroke-miterlimit:4;fill:none;fill-rule:nonzero;opacity:1" vector-effect="non-scaling-stroke" transform="matrix(3.1 0 0 3.1 386.02 234.925)" d="M11.634 23.748c7.313-5.548 21.204-7.07 29.768-8.153 9.529-1.206 19.06-1.165 27.463 3.952 1.007.613.895 1.694.288 2.33.154.254.302.51.454.765 1.475-1.154 2.28-2.284 1.615-3.162-.522-.689-.353-1.322.093-1.759-8.773-6.684-19.788-7.793-30.731-7.166-7.196.412-27.019 2.566-32.414 9.755.804 1.325 2.015 2.45 3.464 3.438z"/><path style="stroke:none;stroke-width:1;stroke-dasharray:none;stroke-linecap:butt;stroke-dashoffset:0;stroke-linejoin:miter;stroke-miterlimit:4;fill:none;fill-rule:nonzero;opacity:1" vector-effect="non-scaling-stroke" transform="matrix(3.1 0 0 3.1 385.716 234.667)" d="M81.83 59.04c1.867-2.379 1.607-3.072 1.525-5.918a750.376 750.376 0 0 1-.189-9.246c-2.137-.4-4.218-.473-6.428-.616a1.488 1.488 0 0 1-.632-.195c-.339 5.893-.863 11.79-1.629 17.609a85.93 85.93 0 0 0 3.379.603c1.955.428 3.28-.318 3.974-2.237z"/><path style="stroke:none;stroke-width:1;stroke-dasharray:none;stroke-linecap:butt;stroke-dashoffset:0;stroke-linejoin:miter;stroke-miterlimit:4;fill:none;fill-rule:nonzero;opacity:1" vector-effect="non-scaling-stroke" transform="matrix(3.1 0 0 3.1 385.68 234.672)" d="M86.704 38.322c-3.438-1.782-6.679-1.245-10.276-1.75-.049 1.225-.122 2.457-.183 3.686.031-.008.049-.026.082-.033 3.036-.578 5.995-.153 8.965.613.728.188 1.242.903 1.25 1.642.045 3.82.098 7.639.074 11.46-.016 2.617.183 5.373-1.621 7.471-2.754 3.202-7.228 2.412-10.757 1.007-.125.883-.224 1.774-.362 2.651 5.016.217 12.024 2.657 14.849-2.297 1.848-3.241 2.287-8.515 2.572-12.124.409-5.18.39-9.742-4.593-12.326z"/><path style="stroke:none;stroke-width:1;stroke-dasharray:none;stroke-linecap:butt;stroke-dashoffset:0;stroke-linejoin:miter;stroke-miterlimit:4;fill:none;fill-rule:nonzero;opacity:1" vector-effect="non-scaling-stroke" transform="matrix(3.1 0 0 3.1 386.093 234.894)" d="M34.034 19.831c-5.547.734-14.58 2.101-19.237 4.115 6.081-1.179 12.168-2.446 18.281-3.5.297-.23.617-.436.956-.615z"/><path style="stroke:none;stroke-width:1;stroke-dasharray:none;stroke-linecap:butt;stroke-dashoffset:0;stroke-linejoin:miter;stroke-miterlimit:4;fill:none;fill-rule:nonzero;opacity:1" vector-effect="non-scaling-stroke" transform="matrix(3.1 0 0 3.1 386.015 234.626)" d="M43.511 33.446c-7.19-.049-20.373-.64-29.13-4.869-.531-.089-1.059-.169-1.598-.279-.758-.155-1.215-.737-1.386-1.409-1.913-1.311-3.462-2.88-4.465-4.764 2.844 13.017 5.357 26.09 8.73 38.988 3.872 14.806 9.407 26.868 26.519 28.308 7.744.652 15.264.528 20.729-5.248 6.119-6.467 5.838-14.37 6.938-23.131 1.514-12.053 2.345-24.128 2.863-36.247-6.183 7.486-21.047 8.707-29.2 8.651z"/><path style="stroke:none;stroke-width:1;stroke-dasharray:none;stroke-linecap:butt;stroke-dashoffset:0;stroke-linejoin:miter;stroke-miterlimit:4;fill:#00898f;fill-rule:nonzero;opacity:1" vector-effect="non-scaling-stroke" transform="matrix(3.1 0 0 3.1 385.922 234.683)" d="M91.867 37.226c-4.034-4.781-9.932-2.794-15.352-2.599.19-5.262.292-10.469.374-15.535.016-1.011-.591-1.594-1.329-1.791C67.762 6.526 50.903 6.058 38.87 7.093c-8.368.719-30.177 3.413-33.185 13.301-.384.065-.725.325-.681.789 1.687 17.464 4.599 36.579 10.905 53.016 4.75 12.383 14.778 18.256 27.782 18.953 11.77.631 23.653-.663 27.12-13.456 1.008-3.721 1.799-7.563 2.491-11.449 4.422.808 12.349 3.046 16.102.508 4.264-2.883 4.998-12.49 5.408-17.033.437-4.824.352-10.588-2.945-14.496zm-51.283-26.67c10.943-.627 21.958.482 30.731 7.166-.446.436-.615 1.07-.093 1.759.665.878-.14 2.008-1.615 3.162-.152-.255-.3-.512-.454-.765.607-.636.719-1.717-.288-2.33-8.403-5.117-17.934-5.158-27.463-3.952-8.565 1.084-22.456 2.605-29.768 8.153-1.449-.988-2.66-2.113-3.464-3.437 5.394-7.191 25.218-9.344 32.414-9.756zm22.837 14.49c.245-.213.45-.476.625-.771.458.358.934.658 1.436.914-2.996 1.567-6.151 2.826-6.937 3.05-4.251 1.21-8.818 1.622-13.29 1.706.096-.042.191-.085.284-.129 1.749.127 3.456-.344 4.898-1.2.299.034.585.086.908.086.603 0 1.158-.091 1.688-.224 1.193.263 2.518.119 3.913-.634.287-.155.502-.327.742-.492 2.567.407 5.129-.232 5.733-2.306zm-5.663-5.897c1.226.229 2.452.524 3.678.879-.065.089-.109.19-.146.298l-1.789.002c-.427.001-.745.175-1.003.408-.123-.136-.26-.254-.395-.378a5.49 5.49 0 0 0-.345-1.209zm7.262 2.116c.761.304 1.521.588 2.285.951.135.064.263.075.393.103.28.788.375 1.288.258 1.46l-.076.048c-.319.132-1.272-.721-2.86-2.562zm-30.986-1.434c-.339.18-.659.385-.956.615-6.113 1.054-12.199 2.321-18.281 3.5 4.656-2.015 13.69-3.381 19.237-4.115zm35.815 41.212c-1.1 8.761-.819 16.665-6.938 23.131-5.466 5.776-12.986 5.9-20.729 5.248-17.112-1.44-22.647-13.502-26.519-28.308-3.373-12.899-5.886-25.972-8.73-38.988 1.003 1.884 2.552 3.453 4.465 4.764.171.672.628 1.254 1.386 1.409.539.11 1.066.189 1.598.279 8.757 4.229 21.94 4.82 29.13 4.869 8.153.055 23.016-1.166 29.201-8.65-.519 12.118-1.35 24.193-2.864 36.246zm6.258-17.978c.189.104.395.18.632.195 2.209.142 4.29.215 6.428.616.05 3.083.101 6.164.189 9.246.082 2.846.342 3.538-1.525 5.918-.695 1.92-2.019 2.665-3.973 2.237a85.6 85.6 0 0 1-3.379-.603c.765-5.819 1.288-11.717 1.628-17.609zm15.19 7.584c-.284 3.609-.723 8.883-2.572 12.124-2.825 4.954-9.832 2.513-14.849 2.297.138-.877.237-1.769.362-2.651 3.529 1.404 8.002 2.195 10.757-1.007 1.805-2.098 1.606-4.855 1.621-7.471.023-3.82-.029-7.64-.074-11.46-.009-.739-.522-1.454-1.25-1.642-2.97-.766-5.93-1.191-8.965-.613-.033.007-.051.025-.082.033.061-1.229.133-2.461.183-3.686 3.597.505 6.838-.032 10.276 1.75 4.983 2.583 5.002 7.145 4.593 12.326z"/><path style="stroke:none;stroke-width:1;stroke-dasharray:none;stroke-linecap:butt;stroke-dashoffset:0;stroke-linejoin:miter;stroke-miterlimit:4;fill:#00898f;fill-rule:nonzero;opacity:1" vector-effect="non-scaling-stroke" transform="matrix(2.89 0 0 2.89 355.728 519.941)" d="M15.56 15.48c1.16-.04 1.2 1.72 0 1.76-1.6 0-3.16.08-4.76.24-1.04 6.08-.92 12.68-1.12 18.92-.04 1.24-1.8 1.08-1.76 0C8.12 30.16 8 23.96 9 17.64c-1.32.16-4.44.48-4.56.48-.92 0-1.2-1.44-.2-1.72.16-.04 7.48-.92 11.32-.92zm16.634 1.96c.12 6.64-.6 13.16-.32 19.68.04 1.08-1.72 1.24-1.76 0-.12-2.48-.08-4.96 0-7.44-.32.08-3.56-.08-6.68.52.04 2.6.32 4.44.68 5.96.12.64-.32 1.12-.84 1.12-1 0-1.04-1.2-1.24-2.72-.8-5.6-.16-11.76.8-17.32.12-.88 1.72-.84 1.72.24-.16 1.12-1.04 5.64-1.12 10.96 2.6-.48 6.4-.56 6.76-.44.12-3.52.32-7.04.24-10.56-.04-1.12 1.72-1.2 1.76 0zm18.474 17.28c.04.2.04.44-.08.68-.6.96-8.28 2.48-9.12 1.64-1.48-1.48-.36-18.2.2-19.16.12-.2.32-.4.52-.4 1.92-.28 3.84-.44 6.96-.4.48 0 .88.4.88.88 0 1.44-1.56.56-6.76 1.12a60.51 60.51 0 0 0-.8 9.16c1.16-.04 1.92-.28 3.6-.6 1.24-.28 1.48 1.48.44 1.68-1.32.28-2.64.6-4.04.68.04 1.84.16 3.68.4 5.52 5.28-.16 7.32-2.56 7.8-.8zm35.788-19.24c1.16-.04 1.2 1.72 0 1.76-1.6 0-3.16.08-4.76.24-1.04 6.08-.92 12.68-1.12 18.92-.04 1.24-1.8 1.08-1.76 0 .2-6.24.08-12.44 1.08-18.76-1.32.16-4.44.48-4.56.48-.92 0-1.2-1.44-.2-1.72.16-.04 7.48-.92 11.32-.92zm17.634 19.24c.04.2.04.44-.08.68-.6.96-8.28 2.48-9.12 1.64-1.48-1.48-.36-18.2.2-19.16.12-.2.32-.4.52-.4 1.92-.28 3.84-.44 6.96-.4.48 0 .88.4.88.88 0 1.44-1.56.56-6.76 1.12a60.51 60.51 0 0 0-.8 9.16c1.16-.04 1.92-.28 3.6-.6 1.24-.28 1.48 1.48.44 1.68-1.32.28-2.64.6-4.04.68.04 1.84.16 3.68.4 5.52 5.28-.16 7.32-2.56 7.8-.8zm17.114-17.44c2.44 4.16 2.24 17.16 2.4 19.96.04.68-.92 1.2-1.52.6-.52-.56-.12-3.16-.6-10.12-2.16.36-4.28.72-6.44.4-1.84 8.2-1.28 8.36-1.96 8.8-.56.32-1.44-.04-1.32-1 .64-4.4 2.44-13.64 4.48-17.72 1.76-3.56 3.88-2.72 4.96-.92zm-5.8 9.12c1.84.28 4.28-.16 5.96-.44-.12-1.52-.92-8.44-2.44-8.44-1.36.36-3.16 7.52-3.52 8.88z"/><path style="stroke:none;stroke-width:1;stroke-dasharray:none;stroke-linecap:butt;stroke-dashoffset:0;stroke-linejoin:miter;stroke-miterlimit:4;fill:#00898f;fill-rule:nonzero;opacity:1" vector-effect="non-scaling-stroke" transform="matrix(7.22 0 0 7.22 335.674 546.533)" d="M11.28 34.36c.12.48-.16 1-.6 1.12-2.72.76-5.2 1.84-5.92 1.12-1.12-1.12-.24-15.6-.08-20.76.04-1.16 1.76-1.16 1.76 0 0 6.4-.76 12.76-.28 19.08 3.16-.68 4.76-1.92 5.12-.56zm17.354-17.08c2.44 4.16 2.24 17.16 2.4 19.96.04.68-.92 1.2-1.52.6-.52-.56-.12-3.16-.6-10.12-2.16.36-4.28.72-6.44.4-1.84 8.2-1.28 8.36-1.96 8.8-.56.32-1.44-.04-1.32-1 .64-4.4 2.44-13.64 4.48-17.72 1.76-3.56 3.88-2.72 4.96-.92zm-5.8 9.12c1.84.28 4.28-.16 5.96-.44-.12-1.52-.92-8.44-2.44-8.44-1.36.36-3.16 7.52-3.52 8.88zm23.234-2.56c11.12 3.92 5.32 16.04-2.44 12.72h-1.12c-.36.84-1.04.84-1.4 0-.8-7-1.6-14.68 0-21.4.24-1.16 1.64-.6 1.36.48-.32 1.36-.56 2.88-.68 4.36l.04.04.16.04h.04c3.16-4.52 9.08-7.36 9.72-3.28.52 3.64-2.56 5.52-5.68 6.8l-.04.04v.16zm4.2-6.88c-.4-1.56-6.44 2-8.08 5.84v.04l.12.12h.04c2.76-.68 8.8-2.8 7.92-6zm.52 14.36c.28-4.24-5.72-6.6-9.04-6.36h-.04l-.08.08v.04c.04 2.72.28 5.52.56 8.2v.04c1.56 2.84 7.84 2.88 8.6-2z"/></g></svg>